<?xml version="1.0" standalone="no"?>
<!DOCTYPE svg PUBLIC "-//W3C//DTD SVG 20010904//EN"
 "http://www.w3.org/TR/2001/REC-SVG-20010904/DTD/svg10.dtd">
<svg version="1.0" xmlns="http://www.w3.org/2000/svg"
 width="300.000000pt" height="300.000000pt" viewBox="0 0 300.000000 300.000000"
 preserveAspectRatio="xMidYMid meet">
<metadata>
Created by potrace 1.11, written by Peter Selinger 2001-2013
</metadata>
<g transform="translate(0.000000,300.000000) scale(0.100000,-0.100000)"
fill="#000000" stroke="none">
<path d="M819 1651 c-43 -14 -69 -31 -69 -47 0 -23 22 -26 63 -9 66 27 100 20
179 -37 13 -10 20 -10 29 -1 18 18 -15 61 -64 84 -44 19 -94 23 -138 10z"/>
<path d="M1973 1641 c-49 -23 -82 -66 -64 -84 9 -9 16 -9 29 1 79 57 113 64
179 37 41 -17 63 -14 63 9 0 44 -139 69 -207 37z"/>
<path d="M1284 1474 c-22 -33 -24 -157 -3 -199 32 -66 77 -27 86 75 11 113
-41 189 -83 124z"/>
<path d="M1613 1473 c-25 -38 -25 -168 0 -206 41 -62 82 -11 82 103 0 114 -41
165 -82 103z"/>
<path d="M1608 1023 c-18 -18 -60 -21 -120 -8 -34 7 -38 5 -38 -12 0 -27 39
-43 105 -43 46 0 60 5 86 28 33 29 33 52 1 52 -10 0 -25 -8 -34 -17z"/>
</g>
</svg>
